<svg width="150" height="44" viewBox="0 0 150 44" fill="none" xmlns="http://www.w3.org/2000/svg">
<g clip-path="url(#clip0_2454_889)">
<path fill-rule="evenodd" clip-rule="evenodd" d="M144.251 44C143.268 44 142.436 43.1655 142.436 42.1793V1.82069C142.436 0.834483 143.268 0 144.251 0H148.185C149.168 0 150 0.834483 150 1.82069V42.1793C150 43.1655 149.168 44 148.185 44H144.251Z" fill="white"/>
<path fill-rule="evenodd" clip-rule="evenodd" d="M118.533 37.4H113.389V6.67586H116.793C125.34 6.67586 130.409 12.5172 130.409 22.2276C130.409 32.6966 123.449 37.4 118.533 37.4ZM116.868 0H107.564C106.581 0 105.749 0.834483 105.749 1.82069V42.1793C105.749 43.1655 106.581 44 107.564 44H116.868C134.039 44 137.595 32.1655 137.595 22.2276C137.67 8.72414 129.501 0 116.868 0Z" fill="white"/>
<path fill-rule="evenodd" clip-rule="evenodd" d="M76.3238 14.4138V42.1793C76.3238 43.1655 75.4917 44 74.5083 44H70.4993C69.5159 44 68.6838 43.1655 68.6838 42.1793V1.82069C68.7595 0.834483 69.5916 0 70.5749 0H74.5083C75.7943 0 76.4751 0.227586 77.0046 1.13793L92.3601 29.131V1.82069C92.3601 0.834483 93.1922 0 94.1755 0H98.1089C99.0923 0 99.9244 0.834483 99.9244 1.82069V42.1793C99.9244 43.1655 99.0923 44 98.1089 44H94.3268C93.0409 44 92.3601 43.7724 91.8306 42.8621L76.3238 14.4138Z" fill="white"/>
<path fill-rule="evenodd" clip-rule="evenodd" d="M63.6914 4.77931C63.6914 5.76552 62.8594 6.6 61.876 6.6H41.6037V18.0552H59.0016C59.9849 18.0552 60.817 18.8897 60.817 19.8759V22.8345C60.817 23.8207 59.9849 24.6552 59.0016 24.6552H41.6793V37.2483H61.8004C62.7837 37.2483 63.6158 38.0828 63.6158 39.069V42.1793C63.6158 43.1655 62.7837 44 61.8004 44H35.5522C34.5689 44 33.7368 43.1655 33.7368 42.1793V1.82069C33.7368 0.834483 34.5689 0 35.5522 0H61.876C62.8594 0 63.6914 0.834483 63.6914 1.82069V4.77931Z" fill="white"/>
<path fill-rule="evenodd" clip-rule="evenodd" d="M0 1.82069C0 0.834483 0.832073 0 1.81543 0H27.9879C28.9713 0 29.8033 0.834483 29.8033 1.82069V4.77931C29.8033 5.76552 28.9713 6.6 27.9879 6.6H7.48865V17.9793H21.3313C22.3147 17.9793 23.1467 18.8138 23.1467 19.8V22.9862C23.1467 23.9724 22.3147 24.8069 21.3313 24.8069H7.48865V42.2552C7.48865 43.2414 6.65658 44.0759 5.67322 44.0759H1.81543C0.832073 44 0 43.1655 0 42.1793V1.82069Z" fill="white"/>
</g>
<defs>
<clipPath id="clip0_2454_889">
<rect width="150" height="44" fill="white"/>
</clipPath>
</defs>
</svg>
